<svg viewBox="0 0 108 36" xmlns="http://www.w3.org/2000/svg"><path d="M17.957 0L0 10.614l12.49 7.383 5.467-3.23V0z" fill="#2350FF"></path><path d="M17.957 36V21.233l-5.467-3.236L0 25.387 17.957 36z" fill="#17CC98"></path><path d="M0 25.386l12.49-7.389L0 10.614v14.772z" fill="#E1275E"></path><path d="M0 25.386l12.49-7.389L0 10.614v14.772z" fill="#0092BC"></path><path d="M26.94 0h6.21v4.932h-6.21V0zm0 7.364h6.21V28.63h-6.21V7.364zM42.727 9.61c1.432-1.837 3.636-2.86 6.415-2.86 5.397 0 8.749 3.27 8.749 8.986v12.885h-6.215v-12.48c0-2.657-1.183-4.294-3.96-4.294-2.994 0-4.989 2.047-4.989 5.522v11.247h-6.215V7.364h6.215V9.61zM82.337 22.291c-1.227 3.889-4.744 6.954-10.34 6.954-7.034 0-11.363-4.907-11.363-11.248 0-6.34 4.33-11.247 11.158-11.247 5.392 0 8.909 2.86 10.255 7.114.49 1.674.726 3.413.699 5.157v.998H67.049c.204 2.656 2.124 4.703 4.948 4.703 2.04 0 3.352-1.228 3.636-2.456l6.704.025zm-15.288-6.545h9.272c-.204-2.86-1.92-4.493-4.534-4.493s-4.33 1.632-4.739 4.493zM96.637 29.245c-7.028 0-11.362-4.907-11.362-11.248 0-6.34 4.334-11.247 11.362-11.247 7.028 0 11.363 4.907 11.363 11.247s-4.33 11.248-11.363 11.248zm0-17.588c-3.8 0-5.147 3.495-5.147 6.34 0 2.846 1.347 6.34 5.147 6.34 3.801 0 5.153-3.494 5.153-6.34 0-2.845-1.352-6.34-5.153-6.34z" fill="#000c48"></path></svg>
